<svg xmlns="http://www.w3.org/2000/svg" width="800" height="600" viewBox="0 0 800 600"><rect width="100%" height="100%" fill="#DDDDDD"/><path fill="#999999" d="M209.795 309.64q.96 0 1.7.74l4.61 5q-3.83 4.74-9.42 7.26-5.59 2.53-13.42 2.53-7 0-12.59-2.4-5.59-2.39-9.55-6.65-3.96-4.27-6.07-10.18-2.11-5.92-2.11-12.92 0-7.09 2.26-12.99 2.26-5.89 6.37-10.15 4.11-4.27 9.81-6.64t12.62-2.37q6.87 0 12.2 2.26 5.33 2.27 9.07 5.92l-3.91 5.44q-.35.52-.9.91-.54.39-1.5.39-.65 0-1.35-.37-.69-.37-1.52-.91-.82-.54-1.91-1.2-1.09-.65-2.53-1.19-1.43-.55-3.32-.92-1.9-.37-4.37-.37-4.22 0-7.73 1.51-3.5 1.5-6.02 4.35-2.52 2.84-3.92 6.96-1.39 4.11-1.39 9.37 0 5.31 1.5 9.44t4.07 6.96 6.05 4.33 7.48 1.5q2.39 0 4.33-.26 1.93-.26 3.56-.83t3.09-1.46 2.89-2.19q.44-.4.92-.63.48-.24 1-.24m13.01-29.8h10.78v44.63h-10.78zm12.26-13.01q0 1.39-.56 2.61-.57 1.22-1.5 2.13-.94.92-2.2 1.46t-2.7.54q-1.39 0-2.63-.54t-2.15-1.46q-.92-.91-1.46-2.13t-.54-2.61q0-1.43.54-2.69.54-1.27 1.46-2.18.91-.91 2.15-1.46 1.24-.54 2.63-.54 1.44 0 2.7.54 1.26.55 2.2 1.46.93.91 1.5 2.18.56 1.26.56 2.69m24.36 58.34q-5.83 0-8.94-3.29-3.11-3.28-3.11-9.07v-24.92h-4.56q-.87 0-1.48-.57-.61-.56-.61-1.7v-4.26l7.18-1.17 2.26-12.18q.21-.87.82-1.35t1.57-.48h5.57v14.05h11.92v7.66h-11.92v24.18q0 2.09 1.02 3.26 1.02 1.18 2.81 1.18 1 0 1.67-.24t1.17-.5q.51-.26.9-.5t.78-.24q.48 0 .78.24.31.24.66.72l3.21 5.22q-2.35 1.95-5.39 2.96-3.04 1-6.31 1m49.42-45.33h8.61l-24.31 56.9q-.48 1.13-1.24 1.72-.77.58-2.33.58h-8.01l8.36-17.92-18.06-41.28h9.44q1.26 0 1.98.61t1.07 1.39l9.48 23.14q.48 1.18.81 2.35.32 1.18.63 2.39.39-1.21.78-2.41t.87-2.37l8.96-23.1q.35-.87 1.15-1.44.81-.56 1.81-.56m78.08-18.27h11.75v62.9h-11.75v-27.49h-29.54v27.49h-11.74v-62.9h11.74v27.06h29.54zm32.54 35.45h20.27q0-2.09-.59-3.94-.58-1.84-1.76-3.24-1.17-1.39-2.98-2.19-1.8-.81-4.2-.81-4.65 0-7.33 2.66-2.67 2.65-3.41 7.52m27.4 6.48h-27.62q.26 3.44 1.22 5.94t2.52 4.13q1.57 1.63 3.72 2.44 2.16.8 4.77.8t4.5-.61q1.89-.6 3.3-1.34 1.42-.74 2.48-1.35 1.07-.61 2.07-.61 1.35 0 2 1l3.09 3.91q-1.78 2.09-4 3.51-2.22 1.41-4.64 2.26-2.41.85-4.91 1.19-2.5.35-4.85.35-4.66 0-8.66-1.54-4-1.55-6.96-4.57t-4.65-7.48q-1.7-4.46-1.7-10.33 0-4.57 1.48-8.59 1.48-4.03 4.24-7.01t6.74-4.72 8.99-1.74q4.22 0 7.78 1.35 3.57 1.35 6.14 3.94 2.56 2.59 4.02 6.35t1.46 8.59q0 2.44-.52 3.28-.53.85-2.01.85m10.92-23.66h10.79v44.63h-10.79zm12.27-13.01q0 1.39-.57 2.61-.56 1.22-1.5 2.13-.93.92-2.19 1.46t-2.7.54q-1.39 0-2.63-.54t-2.16-1.46q-.91-.91-1.45-2.13-.55-1.22-.55-2.61 0-1.43.55-2.69.54-1.27 1.45-2.18.92-.91 2.16-1.46 1.24-.54 2.63-.54 1.44 0 2.7.54 1.26.55 2.19 1.46.94.91 1.5 2.18.57 1.26.57 2.69m25.8 34.24q2 0 3.48-.55 1.47-.54 2.45-1.5.98-.95 1.48-2.3t.5-2.96q0-3.31-1.98-5.24-1.98-1.94-5.93-1.94-3.96 0-5.94 1.94-1.98 1.93-1.98 5.24 0 1.56.5 2.91t1.48 2.33 2.48 1.52q1.5.55 3.46.55m12.13 25.4q0-1.3-.78-2.13t-2.13-1.28q-1.35-.46-3.16-.68-1.8-.22-3.82-.32-2.03-.11-4.18-.2t-4.2-.35q-1.78 1-2.89 2.35t-1.11 3.13q0 1.18.59 2.2.58 1.02 1.87 1.76 1.28.74 3.33 1.15 2.04.42 5 .42 3 0 5.17-.46 2.18-.46 3.59-1.26 1.42-.81 2.07-1.91.65-1.11.65-2.42m-2.13-45.11h12.83v4q0 1.92-2.3 2.35l-4 .74q.91 2.31.91 5.05 0 3.3-1.33 5.98-1.32 2.67-3.67 4.54-2.35 1.88-5.55 2.9t-6.89 1.02q-1.31 0-2.53-.13t-2.39-.35q-2.09 1.26-2.09 2.83 0 1.35 1.24 1.98t3.29.89q2.04.26 4.65.33 2.61.06 5.35.28t5.35.76 4.66 1.72q2.04 1.17 3.28 3.2 1.24 2.02 1.24 5.19 0 2.96-1.46 5.75-1.45 2.78-4.22 4.96-2.76 2.17-6.78 3.5-4.03 1.32-9.16 1.32-5.05 0-8.79-.98-3.74-.97-6.22-2.61-2.48-1.63-3.69-3.76-1.22-2.13-1.22-4.43 0-3.14 1.89-5.25t5.2-3.37q-1.79-.91-2.83-2.43-1.04-1.53-1.04-4.01 0-1 .37-2.06.37-1.07 1.08-2.11.72-1.05 1.81-1.98 1.09-.94 2.57-1.68-3.4-1.82-5.33-4.87-1.94-3.04-1.94-7.13 0-3.31 1.33-5.98 1.32-2.68 3.69-4.57 2.38-1.89 5.62-2.89t7.07-1q2.87 0 5.39.58 2.52.59 4.61 1.72m30.36-21.53v24.79q2.61-2.43 5.75-3.95 3.13-1.53 7.35-1.53 3.65 0 6.48 1.24t4.72 3.48 2.87 5.35.98 6.85v28.41h-10.75v-28.41q0-4.08-1.87-6.32-1.87-2.25-5.7-2.25-2.78 0-5.22 1.27-2.43 1.26-4.61 3.43v32.28h-10.74v-64.64zm53.2 65.34q-5.83 0-8.94-3.29-3.11-3.28-3.11-9.07v-24.92h-4.56q-.87 0-1.48-.57-.61-.56-.61-1.7v-4.26l7.18-1.17 2.26-12.18q.22-.87.82-1.35.61-.48 1.57-.48h5.57v14.05h11.92v7.66h-11.92v24.18q0 2.09 1.02 3.26 1.02 1.18 2.81 1.18 1 0 1.67-.24.68-.24 1.18-.5t.89-.5.78-.24q.48 0 .78.24.31.24.66.72l3.22 5.22q-2.35 1.95-5.4 2.96-3.04 1-6.31 1m47.16-40.5-2.44 3.87q-.43.69-.91.98-.48.28-1.22.28-.78 0-1.67-.43-.9-.44-2.07-.98-1.18-.55-2.68-.98-1.5-.44-3.54-.44-3.18 0-4.98 1.35-1.81 1.35-1.81 3.52 0 1.44.94 2.42.93.98 2.48 1.72 1.54.74 3.5 1.32 1.96.59 3.98 1.29 2.02.69 3.98 1.59 1.96.89 3.5 2.26 1.55 1.37 2.48 3.28.94 1.92.94 4.61 0 3.22-1.16 5.94-1.15 2.72-3.41 4.7t-5.59 3.09-7.68 1.11q-2.3 0-4.5-.42-2.2-.41-4.22-1.15t-3.74-1.74-3.02-2.18l2.47-4.08q.48-.74 1.14-1.14.65-.39 1.65-.39t1.89.57q.89.56 2.07 1.22 1.17.65 2.76 1.21 1.59.57 4.02.57 1.92 0 3.29-.46 1.37-.45 2.26-1.19t1.3-1.72q.42-.98.42-2.02 0-1.57-.94-2.57-.93-1-2.48-1.74-1.54-.74-3.52-1.33-1.98-.58-4.05-1.28-2.06-.7-4.04-1.63-1.98-.94-3.53-2.37-1.54-1.44-2.47-3.53-.94-2.08-.94-5.04 0-2.74 1.09-5.22t3.19-4.33q2.11-1.85 5.27-2.96 3.15-1.11 7.28-1.11 4.62 0 8.4 1.53 3.78 1.52 6.31 4"/></svg>